<svg width="12" height="10" viewBox="0 0 12 10" fill="none" xmlns="http://www.w3.org/2000/svg">
<path d="M11.8817 4.64727C10.5856 1.91699 8.6264 0.542969 6.00003 0.542969C3.3723 0.542969 1.41449 1.91699 0.118393 4.64863C0.0664058 4.75871 0.039444 4.87894 0.039444 5.00068C0.039444 5.12242 0.0664058 5.24265 0.118393 5.35273C1.41449 8.08301 3.37367 9.45703 6.00003 9.45703C8.62777 9.45703 10.5856 8.08301 11.8817 5.35137C11.9869 5.12988 11.9869 4.87285 11.8817 4.64727ZM6.00003 8.47266C3.79476 8.47266 2.18011 7.3543 1.04124 5C2.18011 2.6457 3.79476 1.52734 6.00003 1.52734C8.20531 1.52734 9.81995 2.6457 10.9588 5C9.82132 7.3543 8.20667 8.47266 6.00003 8.47266Z" fill="#1890FF"/>
<path d="M5.94531 2.59375C4.61641 2.59375 3.53906 3.67109 3.53906 5C3.53906 6.32891 4.61641 7.40625 5.94531 7.40625C7.27422 7.40625 8.35156 6.32891 8.35156 5C8.35156 3.67109 7.27422 2.59375 5.94531 2.59375ZM5.94531 6.53125C5.09902 6.53125 4.41406 5.84629 4.41406 5C4.41406 4.15371 5.09902 3.46875 5.94531 3.46875C6.7916 3.46875 7.47656 4.15371 7.47656 5C7.47656 5.84629 6.7916 6.53125 5.94531 6.53125Z" fill="#1890FF"/>
</svg>
