<svg width="14" height="13" viewBox="0 0 14 13" fill="none" xmlns="http://www.w3.org/2000/svg">
<path d="M13.722 6.59541C13.1727 5.43822 12.519 4.49447 11.761 3.76416L10.966 4.55916C11.6143 5.17869 12.179 5.98916 12.6673 6.99854C11.3673 9.68916 9.52197 10.9673 7.00009 10.9673C6.24311 10.9673 5.54587 10.8507 4.90837 10.6176L4.04697 11.479C4.93238 11.8879 5.91676 12.0923 7.00009 12.0923C10.0032 12.0923 12.2438 10.5282 13.722 7.4001C13.7814 7.27429 13.8122 7.13689 13.8122 6.99776C13.8122 6.85862 13.7814 6.72122 13.722 6.59541ZM12.7287 1.58541L12.0626 0.918535C12.051 0.906913 12.0372 0.897693 12.022 0.891402C12.0068 0.885112 11.9906 0.881874 11.9742 0.881874C11.9577 0.881874 11.9415 0.885112 11.9263 0.891402C11.9111 0.897693 11.8973 0.906913 11.8857 0.918535L10.1768 2.62666C9.23462 2.14541 8.17571 1.90479 7.00009 1.90479C3.99697 1.90479 1.75634 3.46885 0.278215 6.59697C0.218802 6.72278 0.187988 6.86019 0.187988 6.99932C0.187988 7.13845 0.218802 7.27585 0.278215 7.40166C0.868736 8.64541 1.57967 9.64234 2.41103 10.3924L0.75759 12.0454C0.734166 12.0689 0.721008 12.1006 0.721008 12.1338C0.721008 12.1669 0.734166 12.1987 0.75759 12.2221L1.42462 12.8892C1.44806 12.9126 1.47984 12.9257 1.51298 12.9257C1.54612 12.9257 1.5779 12.9126 1.60134 12.8892L12.7287 1.76229C12.7403 1.75068 12.7495 1.73689 12.7558 1.72172C12.7621 1.70654 12.7653 1.69027 12.7653 1.67385C12.7653 1.65742 12.7621 1.64115 12.7558 1.62598C12.7495 1.61081 12.7403 1.59702 12.7287 1.58541ZM1.3329 6.99854C2.63447 4.30791 4.47978 3.02979 7.00009 3.02979C7.85228 3.02979 8.62712 3.17604 9.33009 3.47338L8.23165 4.57182C7.71145 4.29426 7.1158 4.19125 6.5326 4.27798C5.94939 4.36471 5.4095 4.6366 4.99258 5.05352C4.57565 5.47045 4.30377 6.01034 4.21704 6.59354C4.1303 7.17675 4.23331 7.77239 4.51087 8.2926L3.20743 9.59604C2.48603 8.95932 1.86415 8.09666 1.3329 6.99854ZM5.18759 6.99854C5.18786 6.72301 5.25313 6.45144 5.37808 6.20587C5.50303 5.96031 5.68414 5.74768 5.9067 5.58527C6.12926 5.42285 6.387 5.31523 6.65898 5.27113C6.93095 5.22704 7.20949 5.24772 7.47197 5.3315L5.27056 7.53291C5.21538 7.36016 5.18739 7.17988 5.18759 6.99854Z" fill="black" fill-opacity="0.45"/>
</svg>
